<?xml version="1.0" encoding="UTF-8" standalone="no"?>
<!-- Created with Inkscape (http://www.inkscape.org/) -->

<svg
   width="1000"
   height="1000"
   viewBox="0 0 264.58334 264.58336"
   version="1.1"
   id="svg1681"
   inkscape:version="1.1.1 (3bf5ae0d25, 2021-09-20)"
   sodipodi:docname="mech_outline_square.svg"
   xmlns:inkscape="http://www.inkscape.org/namespaces/inkscape"
   xmlns:sodipodi="http://sodipodi.sourceforge.net/DTD/sodipodi-0.dtd"
   xmlns="http://www.w3.org/2000/svg"
   xmlns:svg="http://www.w3.org/2000/svg">
  <sodipodi:namedview
     id="namedview1683"
     pagecolor="#ffffff"
     bordercolor="#666666"
     borderopacity="1.0"
     inkscape:pageshadow="2"
     inkscape:pageopacity="0"
     inkscape:pagecheckerboard="true"
     inkscape:document-units="cm"
     showgrid="false"
     fit-margin-top="0"
     fit-margin-left="0.1"
     fit-margin-right="0"
     fit-margin-bottom="0"
     inkscape:zoom="0.49837466"
     inkscape:cx="239.77945"
     inkscape:cy="301.98165"
     inkscape:window-width="1920"
     inkscape:window-height="1017"
     inkscape:window-x="1592"
     inkscape:window-y="-8"
     inkscape:window-maximized="1"
     inkscape:current-layer="layer1"
     units="px"
     height="200px"
     width="1000px"
     lock-margins="true" />
  <defs
     id="defs1678" />
  <g
     inkscape:label="Layer 1"
     inkscape:groupmode="layer"
     id="layer1"
     style="display:inline"
     transform="translate(-24.382363,52.338567)">
    <g
       id="mech_outline"
       transform="translate(32.252621)">
      <path
         style="fill:#000000;fill-opacity:0;stroke:#816c3f;stroke-width:2.81212;stroke-miterlimit:4;stroke-dasharray:none;stroke-opacity:1"
         d="m 110.54529,-26.774393 v -17.84529 l 3.21615,-3.15641 3.21614,-3.156414 h 10.65997 10.66 v 21.0017 21.001704 h -13.87614 -13.87612 z"
         id="head_armor" />
      <path
         style="fill:#000000;fill-opacity:0;stroke:#816c3f;stroke-width:2.81212;stroke-miterlimit:4;stroke-dasharray:none;stroke-opacity:1"
         d="m 145.79815,-7.428983 v -30.002432 h 7.12556 7.12558 v 2.625216 2.62521 h 7.12556 7.12558 v 21.205776 21.205778 l -6.20368,6.171438 -6.20364,6.171434 h -8.04748 -8.04748 z"
         id="left_torso_armor" />
      <path
         style="fill:#000000;fill-opacity:0;stroke:#816c3f;stroke-width:2.81212;stroke-miterlimit:4;stroke-dasharray:none;stroke-opacity:1"
         d="m 80.713811,16.369773 -6.17144,-6.203662 v -21.17355 -21.17355 h 7.125576 7.125576 v -2.62521 -2.625216 h 7.12558 7.125577 v 30.002432 30.00242 h -8.079713 -8.079714 z"
         id="right_torso_armor" />
      <path
         style="fill:#000000;fill-opacity:0;stroke:#816c3f;stroke-width:2.81212;stroke-miterlimit:4;stroke-dasharray:none;stroke-opacity:1"
         d="m 109.77155,82.390737 -0.0237,-17.438916 -7.1019,-5.218486 -7.101903,-5.218488 v -6.594976 -6.594952 h 7.500603 7.50061 V 18.823137 -3.678679 h 13.87612 13.87613 v 22.501816 22.501828 h 7.5006 7.5006 v 6.59495 6.59498 l -7.1019,5.218486 -7.1019,5.218486 -0.0238,17.43892 -0.0238,17.438918 H 124.42118 109.795 l -0.0238,-17.438918 z"
         id="center_torso_armor" />
      <path
         style="fill:#000000;fill-opacity:0;stroke:#816c3f;stroke-width:2.81212;stroke-miterlimit:4;stroke-dasharray:none;stroke-opacity:1"
         d="m 204.30287,126.7138 c 0,-0.5785 0.5219,-5.26084 1.15978,-10.40519 l 1.15978,-9.35337 -4.06348,-3.90844 -4.06348,-3.908413 5.52894,-3.1634 5.5289,-3.163418 V 80.736837 68.661991 l -5.25044,-5.210182 -5.25042,-5.210198 V 34.782093 11.322589 h -8.6257 -8.6257 v -19.126602 -19.12655 h 9.20838 9.20834 l 5.0428,5.081736 5.0428,5.081732 v 4.887916 c 0,4.802296 0.0592,4.945946 3.37526,8.2005 l 3.3753,3.31258002 V 10.576419 21.518935 l 3.00022,2.929664 3.00026,2.929652 v 38.29372 38.293749 l -8.25068,10.28794 c -4.53788,5.65836 -8.25066,10.59316 -8.25066,10.96622 0,0.37306 -0.5063,1.09846 -1.1251,1.61204 -0.90912,0.75448 -1.1251,0.7318 -1.1251,-0.1182 z"
         id="left_arm_armor" />
      <path
         style="fill:#000000;fill-opacity:0;stroke:#816c3f;stroke-width:2.81212;stroke-miterlimit:4;stroke-dasharray:none;stroke-opacity:1"
         d="m 43.177329,126.6694 c -0.488162,-0.48818 -0.88757,-1.16664 -0.88757,-1.50768 0,-0.34108 -3.712802,-5.2497 -8.25067,-10.90806 L 25.788423,103.96572 V 65.671971 27.378251 l 3.000242,-2.929652 3.000242,-2.929664 V 10.576419 -0.36609898 L 35.164179,-3.678679 c 3.321558,-3.25986 3.375274,-3.390992 3.375274,-8.23944 v -4.926856 l 5.081736,-5.042792 5.081732,-5.042796 h 9.169422 9.169418 v 19.12655 19.126548 h -8.625696 -8.6257 v 23.459506 23.459518 l -5.250424,5.210198 -5.250428,5.210184 v 12.074846 12.074832 l 5.52891,3.163418 5.52891,3.1634 -4.059288,3.908413 -4.059286,3.90844 1.22257,9.99633 c 0.672414,5.498 1.085546,10.13336 0.918072,10.30084 -0.16748,0.1674 -0.703908,-0.0948 -1.192072,-0.58306 z"
         id="right_arm_armor" />
      <path
         style="fill:#000000;fill-opacity:0;stroke:#816c3f;stroke-width:2.81212;stroke-miterlimit:4;stroke-dasharray:none;stroke-opacity:1"
         d="M 144.29801,206.12734 V 201.416 l 4.5004,-4.4534 c 4.37018,-4.3246 4.50034,-4.568 4.50034,-8.4147 v -3.96134 h 3.00026 3.0002 v -8.1199 c 0,-7.69144 -0.099,-8.2129 -1.87516,-9.88154 -1.83504,-1.72396 -1.87512,-1.99702 -1.87512,-12.77756 v -11.01592 l 3.37528,-1.79058 3.37524,-1.7906 v -6.18286 -6.18288 l -4.12532,-2.3282 -4.12532,-2.32818 V 110.63399 99.079637 h -4.12532 -4.12534 V 85.203521 71.327397 h 3.7503 3.7503 v -3.590996 c 0,-3.29503 0.29576,-3.88228 3.58856,-7.125576 l 3.58854,-3.534596 h 8.1965 8.19654 l 3.21614,3.156422 3.21616,3.15641 v 30.492108 30.492091 l -3.37528,1.79058 -3.37528,1.79058 v 5.7252 5.72522 l 3.37528,0.8499 3.37528,0.84992 v 11.468 11.468 l -2.6252,2.54446 -2.62524,2.54444 v 8.10356 8.10352 h 3.00024 3.00024 v 3.21126 c 0,2.92996 0.39418,3.60126 4.50038,7.66462 l 4.50036,4.4534 v 5.0864 5.0864 h -24.37698 -24.37698 z"
         id="left_leg_armor" />
      <path
         style="fill:#000000;fill-opacity:0;stroke:#816c3f;stroke-width:2.81212;stroke-miterlimit:4;stroke-dasharray:none;stroke-opacity:1"
         d="m 55.790853,205.75232 v -5.0864 l 4.500364,-4.4534 c 4.1062,-4.06336 4.500366,-4.73466 4.500366,-7.66462 v -3.21126 h 3.000242 3.000242 v -8.10352 -8.10356 l -2.625212,-2.54444 -2.625212,-2.54446 v -11.468 -11.468 l 3.375272,-0.84992 3.375272,-0.8499 v -5.72522 -5.7252 l -3.375272,-1.79058 -3.375272,-1.79058 V 93.881169 63.389061 l 3.216148,-3.15641 3.216148,-3.156422 h 8.250474 8.250472 l 3.534592,3.588562 c 3.20573,3.254656 3.534596,3.917646 3.534596,7.125576 v 3.53703 h 3.750302 3.750305 v 13.876124 13.876116 h -4.125335 -4.125334 v 11.554353 11.55435 l -4.125336,2.32818 -4.125332,2.3282 v 6.18288 6.18286 l 3.375272,1.7906 3.375272,1.79058 v 11.01592 c 0,10.78054 -0.04008,11.0536 -1.87515,12.77756 -1.776204,1.66864 -1.875152,2.1901 -1.875152,9.88154 v 8.1199 h 3.000242 3.000246 v 3.96134 c 0,3.8467 0.13018,4.0901 4.500367,8.4147 l 4.50036,4.4534 v 4.71134 4.71138 H 80.167823 55.790853 Z"
         id="right_leg_armor" />
      <path
         style="fill:#4b361f;fill-opacity:1;stroke:#4b361f;stroke-width:0.744038;stroke-miterlimit:4;stroke-dasharray:none;stroke-opacity:1"
         d="m 159.36347,63.108724 c -1.15644,1.182858 -2.88494,2.442792 -2.5303,4.331298 -0.008,2.467518 -0.012,4.935036 -0.02,7.40255 -2.4997,0 -4.9994,0 -7.4991,0 0,6.907454 0,13.814904 0,20.722352 2.75056,0 5.50106,0 8.2516,0 0,8.191036 0,16.382066 0,24.573086 2.75048,1.55264 5.50128,3.10472 8.25158,4.65772 0,5.50974 0,11.0194 0,16.52912 -2.24854,1.18914 -4.4959,2.38048 -6.744,3.5705 0.0848,6.1793 -0.2557,12.45328 0.3114,18.54788 0.9443,1.2661 2.40112,2.2452 2.70646,3.90232 1.1199,3.39044 0.53634,7.0107 0.72154,10.51044 7.2e-4,3.41532 0.001,6.83064 0.002,10.24596 -1.99282,0 -3.98568,0 -5.9785,0 0.1168,2.9441 -0.41742,6.17088 -2.64252,8.2938 -1.9554,2.3133 -4.27958,4.27216 -6.3512,6.476 -0.0752,1.48254 -0.012,2.96678 -0.0224,4.45016 13.90574,0 27.81144,0 41.71718,0 0,-1.73508 0,-3.47018 0,-5.20526 -2.864,-2.98996 -6.28778,-5.602 -8.2694,-9.30956 -0.52386,-1.24626 -0.70846,-2.61116 -0.7217,-3.95524 -2.0032,0 -4.0064,0 -6.00964,0 0,-7.07092 0,-14.14184 0,-21.21276 1.7511,-1.6948 3.49934,-3.39256 5.24936,-5.08848 0,-6.23626 0,-12.4725 0,-18.70878 -2.24966,-0.56682 -4.49992,-1.13112 -6.74918,-1.6996 0,-5.43444 0,-10.8689 0,-16.30336 2.25062,-1.19192 4.4993,-2.38754 6.74918,-3.58088 0,-19.13085 0,-38.261714 0,-57.392564 -1.45138,-1.424564 -2.90278,-2.849126 -4.35416,-4.273692 -4.50462,0 -9.00926,0 -13.51386,0 -0.85114,0.838998 -1.70224,1.677996 -2.55336,2.51699 z"
         id="left_leg_structure" />
      <path
         style="fill:#4b361f;fill-opacity:1;stroke:#4b361f;stroke-width:0.744038;stroke-miterlimit:4;stroke-dasharray:none;stroke-opacity:1"
         d="m 80.20542,60.59433 c -2.265292,-8.62e-4 -4.530582,-0.0017 -6.795874,-0.0028 -1.450512,1.4237 -2.901024,2.8474 -4.351538,4.2711 0,19.131698 -2e-6,38.26343 0,57.39512 2.250726,1.19338 4.500334,2.38886 6.751762,3.58088 0,5.43448 0,10.86892 0,16.30336 -2.250066,0.5686 -4.501256,1.13276 -6.751762,1.69964 0,6.23626 -2e-6,12.47252 0,18.70876 1.749998,1.69594 3.49826,3.39366 5.249352,5.08848 0,7.07092 0,14.14186 0,21.21278 -1.993698,0 -3.987398,0 -5.981096,0 -0.0072,2.69824 -1.03842,5.42434 -3.068342,7.24814 -1.849912,2.1332 -3.980476,3.99696 -5.933142,6.03224 -0.0136,1.72984 -0.0225,3.45972 -0.0182,5.18966 13.907454,0 27.814906,0 41.72236,0 0,-1.48424 0,-2.9685 0,-4.45274 -2.861728,-3.0165 -6.343496,-5.60896 -8.30088,-9.35698 -0.67001,-1.71682 -0.745222,-3.58878 -0.69801,-5.41022 -2.008316,0.025 -4.016832,-0.0286 -6.02521,0.008 0.211626,-6.64838 -0.358352,-13.33578 0.441066,-19.95372 0.398022,-1.9213 1.87683,-3.3388 3.018022,-4.81718 0.488332,-2.19672 0.13294,-4.46956 0.294636,-6.69822 0.02126,-3.9116 0.0245,-7.82326 0.0192,-11.7349 -2.249868,-1.19336 -4.498536,-2.38896 -6.749166,-3.58086 0,-5.5097 2e-6,-11.0194 0,-16.52912 2.749478,-1.55292 5.499352,-3.10512 8.248982,-4.65774 0,-8.19102 0,-16.38205 0,-24.573076 2.750524,0 5.501052,0 8.251576,0 0,-6.907448 0,-13.814898 0,-20.72234 -2.435684,0 -4.871368,0 -7.307056,0 -0.57333,-3.001964 0.244024,-6.097484 -0.47745,-9.076734 -1.274232,-2.002016 -3.205824,-3.44385 -4.771902,-5.197456 -2.255778,0.0088 -4.511552,0.0172 -6.767332,0.02594 z"
         id="right_leg_structure" />
      <path
         style="fill:#4b361f;fill-opacity:1;stroke:#4b361f;stroke-width:0.744038;stroke-miterlimit:4;stroke-dasharray:none;stroke-opacity:1"
         d="m 114.06284,18.822668 c 0,8.672804 0,17.34561 0,26.018412 -5.00112,0 -10.00223,0 -15.003344,0 0,2.634626 0,5.269248 0,7.90387 4.734914,3.475936 9.468174,6.954134 14.204134,10.428648 0.0152,11.047078 0.0331,22.094162 0.0493,33.141226 7.40652,0 14.81304,0 22.21958,0 0.015,-11.047064 0.0322,-22.094148 0.0468,-33.141226 4.73596,-3.474508 9.46922,-6.952716 14.20414,-10.428648 0,-2.634622 0,-5.269244 0,-7.90387 -5.00026,0 -10.00051,0 -15.00076,0 0,-15.00074 0,-30.001484 0,-45.00222798 -6.90659,0 -13.81318,0 -20.71977,0 0,6.32793598 0,12.65587598 0,18.98381598 z"
         id="center_torso_structure" />
      <path
         style="fill:#4b361f;fill-opacity:1;stroke:#4b361f;stroke-width:0.744038;stroke-miterlimit:4;stroke-dasharray:none;stroke-opacity:1"
         d="m 185.31703,-7.80294 c 0,5.203512 0,10.407022 0,15.61053 5.75102,0 11.50204,0 17.25306,0 0,16.322382 0,32.644762 0,48.96714 3.49976,3.47344 6.99806,6.94833 10.4987,10.420862 0,9.21772 0,18.435434 0,27.65315 -2.91712,1.6708 -5.83496,3.340318 -8.75236,5.010632 2.00592,1.928716 4.01094,3.858336 6.01742,5.786486 -0.4261,3.40828 -0.85406,6.81628 -1.2663,10.22623 3.4416,-4.4158 6.97194,-8.76148 10.47018,-13.13245 0,-24.627576 0,-49.25516 0,-73.882744 -1.99978,-1.95301 -3.99928,-3.906324 -5.99926,-5.859138 0,-7.304462 0,-14.608924 0,-21.913386 -2.48192,-2.520576 -5.69558,-4.82525 -6.46374,-8.498088 -0.56124,-2.62096 -0.126,-5.31147 -0.30878,-7.960954 -2.69492,-2.655608 -5.3439,-5.35724 -8.01286,-8.038802 -4.4787,0 -8.95738,0 -13.43606,0 0,5.20351 0,10.407022 0,15.610532 z"
         id="left_arm_structure" />
      <path
         style="fill:#4b361f;fill-opacity:1;stroke:#4b361f;stroke-width:0.744038;stroke-miterlimit:4;stroke-dasharray:none;stroke-opacity:1"
         d="m 46.098902,-19.396666 c -1.352774,1.34326 -2.70555,2.686518 -4.058322,4.02978 -0.09458,3.592686 0.570344,7.529646 -1.397506,10.76246 -1.3919,2.255072 -3.61558,3.79306802 -5.359446,5.745882 0.04292,7.285358 0.0154,14.570866 0.02074,21.856302 -1.99998,1.952812 -3.999466,3.906132 -5.99926,5.859138 0,24.62845 0,49.256898 0,73.885344 3.496396,4.3674 7.030522,8.7051 10.46757,13.11947 -0.407818,-3.40597 -0.82678,-6.81055 -1.240332,-10.21585 1.999098,-1.92867 4.001484,-3.85394 6.001854,-5.7813 -2.920006,-1.672018 -5.840412,-3.34335 -8.760166,-5.015818 0,-9.217716 0,-18.43543 0,-27.65315 3.50146,-3.472584 7.000696,-6.947412 10.501302,-10.420862 0,-16.322378 0,-32.644758 0,-48.96714 5.750154,0 11.500312,0 17.250466,0 0,-10.407018 0,-20.81404 0,-31.221062 -4.460522,0 -8.921044,0 -13.38157,0 -1.348446,1.338934 -2.696896,2.67787 -4.045344,4.016806 z"
         id="right_arm_structure" />
      <path
         style="fill:#4b361f;fill-opacity:1;stroke:#4b361f;stroke-width:0.744038;stroke-miterlimit:4;stroke-dasharray:none;stroke-opacity:1"
         d="m 149.31371,-7.429284 c 0,8.82936 0,17.65872 0,26.488082 3.70886,0 7.41776,0 11.12664,0 3.44852,-3.426916 6.89708,-6.853828 10.3456,-10.28074 0,-12.481156 0,-24.962316 0,-37.443478 -4.75028,0 -9.50054,0 -14.25082,0 0,-1.749782 0,-3.499566 0,-5.24935 -2.40716,0 -4.8143,0 -7.22142,0 0,8.828496 0,17.65699 0,26.485486 z"
         id="left_torso_structure" />
      <path
         style="fill:#4b361f;fill-opacity:1;stroke:#4b361f;stroke-width:0.744038;stroke-miterlimit:4;stroke-dasharray:none;stroke-opacity:1"
         d="m 92.31033,-30.15226 c 0.368874,0.998034 -0.715542,1.742614 -1.627118,1.492558 -4.14017,-0.0158 -8.428242,-2.34e-4 -12.623722,-0.0058 0,12.459536 0,24.91907 0,37.378608 3.426914,3.448534 6.853828,6.89707 10.28074,10.345606 3.729642,0 7.459288,0 11.188932,0 0,-17.657854 0,-35.31571 0,-52.973566 -2.40628,0 -4.812554,2e-6 -7.218832,0 0,1.25417 0,2.50834 0,3.762512 z"
         id="right_torso_structure" />
      <path
         style="fill:#4b361f;fill-opacity:1;stroke:#4b361f;stroke-width:0.744038;stroke-miterlimit:4;stroke-dasharray:none;stroke-opacity:1"
         d="m 116.22693,-45.272366 c -0.68934,0.76611 -1.63294,1.425548 -2.16409,2.258024 0,10.189748 0,20.379494 0,30.569242 6.90658,0 13.81317,0 20.71977,0 0,-11.656868 0,-23.313734 0,-34.9706 -5.45696,0 -10.91389,0 -16.37083,0 -0.72828,0.714444 -1.45657,1.42889 -2.18485,2.143334 z"
         id="head_structure" />
    </g>
  </g>
</svg>
