<svg viewBox="-500 -500 1000 1000" xmlns="http://www.w3.org/2000/svg" xmlns:svg="http://www.w3.org/2000/svg">
    <title>Matangi Yantra</title>
    <desc>
    This Yantra is constructed with reverence to adorable Matangi, 
    the outcast and residue, who gives control over all creatures.
    ॐ ह्रीं ऐं श्रीं  नमो भगवति उच्छिष्टचण्डालि  श्री मातङ्गेश्वरि सर्वजनवशंकरि स्वाहा
    Authors: Chris Cross Chaos and Alice Nova Kneller
    </desc>
    <defs>
      <radialGradient id="rg1">
        <stop offset="0%" stop-color="#FFFFFF"/>
        <stop offset="70%" stop-color="#55CDFC"/>
        <stop offset="82.5%" stop-color="#03767300">
        </stop>
      </radialGradient>
      <radialGradient id="rg2">
          <stop offset="0%" stop-color="#55CDFC"/>
        <stop offset="50%" stop-color="#55CDFC">
            
            <animate id="rg2a1a" attributeName="stop-color" dur="2000ms" from="#55CDFC" to="FF0000" begin="lotusrotate.begin;rg2a1b.begin+4000ms" fill="freeze" />
            <animate id="rg2a1b" attributeName="stop-color" dur="2000ms" from="#FF0000" to="#55CDFC" begin="rg2a1a.begin+4000ms" fill="freeze" />
        </stop>
        <stop offset="90%" stop-color="#0ca910"/>
        <stop offset="100%" stop-color="#09720c">
        <animate id="rg2a2a" attributeName="stop-color" dur="4000ms" from="#09720c" to="#0ca910" begin="lotusrotate.begin;rg2a2b.begin+4000ms" />
        <animate id="rg2a2b" attributeName="stop-color" dur="4000ms" from="#0ca910" to="#09720c" begin="rg2a2a.begin+4000ms" />
        </stop>
      </radialGradient>
      <linearGradient id="lg1" x1="0" x2="0" y1="0" y2="1">
          <stop offset="0%" stop-color="#f8e0f0" />
          <stop offset="70%" stop-color="#f8e0f0">
            <animate id="lg1a1a" attributeName="stop-color" dur="2000ms" from="#f8e0f0" to="#F7A8B8" begin="lotusrotate.begin+4000ms;lg1a1b.begin+4000ms" fill="freeze" />
            <animate id="lg1a1b" attributeName="stop-color" dur="2000ms" from="#F7A8B8" to="#f8e0f0" begin="lg1a1a.begin+4000ms" fill="freeze" />
           </stop>
           <stop offset="100%" stop-color="#F7A8B8" />
      </linearGradient>
    </defs>
    <svg viewBox="0 0 1000 1000" x="-500" y="-500" id="bg" >
        <rect height="1200" width="1200" x="-100" y="-100" fill="url(#rg1)"/>
    </svg>
    <svg viewBox="-500 -500 1000 1000" x="-500" y="-500" width="1000" height="1000">
        <polygon stroke="#8e7744" fill="url(#rg2)" stroke-width="16" points="
        0,-460 200,-460 200,-400 80,-400 80,-340 340,-340 340,-80 400,-80 400,-200 460,-200
        460,0 460,200 400,200 400,80 340,80 340,340 80,340 80,400 200,400 200,460
        0,460 -200,460 -200,400 -80,400 -80,340 -340,340 -340,80 -400,80 -400,200 -460,200
        -460,0 -460,-200 -400,-200 -400,-80 -340,-80 -340,-340 -80,-340 -80,-400 -200,-400 -200,-460"/>
        <circle r="320" stroke="#8e7744" stroke-width="16" fill="none"/>
        <circle r="208" stroke="#be648700" stroke-width="24" fill="none">
            <animate id="ca1a" attributeName="stroke" from="#be648700" to="#be6487ff" dur="1000ms" begin="lotusrotate.begin;ca1b.begin+4000ms" fill="freeze"/>
            <animate id="ca1b" attributeName="stroke" from="#be6487ff" to="#be648700" dur="1000ms" begin="ca1a.begin+4000ms" fill="freeze"/>
        </circle>
    </svg>
    <svg viewBox="-500 -500 1000 1000" x="-500" y="-500" id="petals" width="1000" height="1000">
        <g id="lotusgroup">
        <animateTransform id="lotusreveal" attributeName="opacity" attributeType="XML" type="rotate"
         from="0%" to="100%" dur="8000ms" begin="lotuswait"/>
        <animateTransform id="lotusrotate" attributeName="transform" attributeType="XML" type="rotate"
         from="0 0 0" to="360 0 0" dur="8000ms" begin="lotuswait.begin+8000ms"/>
        <animateTransform id="lotusloop" attributeName="transform" attributeType="XML" type="rotate"
         from="0 0 0" to="360 0 0" dur="8000ms" begin="lotusrotate.begin+8000ms;lotusloop.begin+8000ms"/>
        <g transform="rotate(0 0 0)">
        <animateTransform id="lotuswait" attributeName="transform" attributeType="XML" type="rotate" fill="freeze"
         from="0 0 0" to="0 0 0" dur="1000ms" begin="0s"/>
        <path stroke="#000000" stroke-width="8" fill="url(#lg1)"
        d="M 0,-312
         C 0,-292.5 132,-247.5 69,-192
         A 216 216 0 0 0 -69,-192
         C -132,-247.5 0,-292.5 0,-312" />
        <path stroke="#F7A8B8" stroke-width="0.25" fill="#be6487"
        d="M 0,-256
         C 0,-216 0,-216 32,-205.25
         A 216 216 0 0 0 -32,-205.25
         C -0,-216 0,-216 0,-256" />
        </g>
        <g transform="rotate(45 0 0)">
        <animateTransform attributeName="transform" attributeType="XML" type="rotate" fill="freeze" from="0 0 0" to="0 0 0" dur="1000ms" begin="lotuswait.begin"/>
        <animateTransform id="lotusmove1" attributeName="transform" attributeType="XML" type="rotate" fill="freeze"
         from="0 0 0" to="45 0 0" dur="1000ms" begin="lotuswait.begin+1000ms"/>
        <path stroke="#000000" stroke-width="8" fill="url(#lg1)"
        d="M 0,-312
         C 0,-292.5 132,-247.5 69,-192
         A 216 216 0 0 0 -69,-192
         C -132,-247.5 0,-292.5 0,-312" />
        <path stroke="#F7A8B8" stroke-width="0.25" fill="#be6487"
        d="M 0,-256
         C 0,-216 0,-216 32,-205.25
         A 216 216 0 0 0 -32,-205.25
         C -0,-216 0,-216 0,-256" />
        </g>
        <g transform="rotate(90 0 0)">
        <animateTransform attributeName="transform" attributeType="XML" type="rotate" fill="freeze" from="0 0 0" to="0 0 0" dur="1000ms" begin="lotuswait.begin"/>
        <animateTransform id="lotusmove2" attributeName="transform" attributeType="XML" type="rotate" fill="freeze"
         from="0 0 0" to="90 0 0" dur="2000ms" begin="lotuswait.begin+1000ms"/>
        <path stroke="#000000" stroke-width="8" fill="url(#lg1)"
        d="M 0,-312
         C 0,-292.5 132,-247.5 69,-192
         A 216 216 0 0 0 -69,-192
         C -132,-247.5 0,-292.5 0,-312" />
        <path stroke="#F7A8B8" stroke-width="0.25" fill="#be6487"
        d="M 0,-256
         C 0,-216 0,-216 32,-205.25
         A 216 216 0 0 0 -32,-205.25
         C -0,-216 0,-216 0,-256" />
        </g>
        <g transform="rotate(135 0 0)">
        <animateTransform attributeName="transform" attributeType="XML" type="rotate" fill="freeze" from="0 0 0" to="0 0 0" dur="1000ms" begin="lotuswait.begin"/>
        <animateTransform id="lotusmove3" attributeName="transform" attributeType="XML" type="rotate" fill="freeze"
         from="0 0 0" to="135 0 0" dur="3000ms" begin="lotuswait.begin+1000ms"/>
        <path stroke="#000000" stroke-width="8" fill="url(#lg1)"
        d="M 0,-312
         C 0,-292.5 132,-247.5 69,-192
         A 216 216 0 0 0 -69,-192
         C -132,-247.5 0,-292.5 0,-312" />
        <path stroke="#F7A8B8" stroke-width="0.25" fill="#be6487"
        d="M 0,-256
         C 0,-216 0,-216 32,-205.25
         A 216 216 0 0 0 -32,-205.25
         C -0,-216 0,-216 0,-256" />
        </g>
        <g transform="rotate(180 0 0)">
        <animateTransform attributeName="transform" attributeType="XML" type="rotate" fill="freeze" from="0 0 0" to="0 0 0" dur="1000ms" begin="lotuswait.begin"/>
        <animateTransform id="lotusmove4" attributeName="transform" attributeType="XML" type="rotate" fill="freeze"
         from="0 0 0" to="180 0 0" dur="4000ms" begin="lotuswait.begin+1000ms"/>
        <path stroke="#000000" stroke-width="8" fill="url(#lg1)"
        d="M 0,-312
         C 0,-292.5 132,-247.5 69,-192
         A 216 216 0 0 0 -69,-192
         C -132,-247.5 0,-292.5 0,-312" />
        <path stroke="#F7A8B8" stroke-width="0.25" fill="#be6487"
        d="M 0,-256
         C 0,-216 0,-216 32,-205.25
         A 216 216 0 0 0 -32,-205.25
         C -0,-216 0,-216 0,-256" />
        </g>
        <g transform="rotate(225 0 0)">
        <animateTransform attributeName="transform" attributeType="XML" type="rotate" fill="freeze" from="0 0 0" to="0 0 0" dur="1000ms" begin="lotuswait.begin"/>
        <animateTransform id="lotusmove5" attributeName="transform" attributeType="XML" type="rotate" fill="freeze"
         from="0 0 0" to="225 0 0" dur="5000ms" begin="lotuswait.begin+1000ms"/>
        <path stroke="#000000" stroke-width="8" fill="url(#lg1)"
        d="M 0,-312
         C 0,-292.5 132,-247.5 69,-192
         A 216 216 0 0 0 -69,-192
         C -132,-247.5 0,-292.5 0,-312" />
        <path stroke="#F7A8B8" stroke-width="0.25" fill="#be6487"
        d="M 0,-256
         C 0,-216 0,-216 32,-205.25
         A 216 216 0 0 0 -32,-205.25
         C -0,-216 0,-216 0,-256" />
        </g>
        <g transform="rotate(270 0 0)">
        <animateTransform attributeName="transform" attributeType="XML" type="rotate" fill="freeze" from="0 0 0" to="0 0 0" dur="1000ms" begin="lotuswait.begin"/>
        <animateTransform id="lotusmove6" attributeName="transform" attributeType="XML" type="rotate" fill="freeze"
         from="0 0 0" to="270 0 0" dur="6000ms" begin="lotuswait.begin+1000ms"/>
        <path stroke="#000000" stroke-width="8" fill="url(#lg1)"
        d="M 0,-312
         C 0,-292.5 132,-247.5 69,-192
         A 216 216 0 0 0 -69,-192
         C -132,-247.5 0,-292.5 0,-312" />
        <path stroke="#F7A8B8" stroke-width="0.25" fill="#be6487"
        d="M 0,-256
         C 0,-216 0,-216 32,-205.25
         A 216 216 0 0 0 -32,-205.25
         C -0,-216 0,-216 0,-256" />
        </g>
        <g transform="rotate(315 0 0)">
        <animateTransform attributeName="transform" attributeType="XML" type="rotate" fill="freeze" from="0 0 0" to="0 0 0" dur="1000ms" begin="lotuswait.begin"/>
        <animateTransform id="lotusmove7" attributeName="transform" attributeType="XML" type="rotate" fill="freeze"
         from="0 0 0" to="315 0 0" dur="7000ms" begin="lotuswait.begin+1000ms"/>
        <path stroke="#000000" stroke-width="8" fill="url(#lg1)"
        d="M 0,-312
         C 0,-292.5 132,-247.5 69,-192
         A 216 216 0 0 0 -69,-192
         C -132,-247.5 0,-292.5 0,-312" />
        <path stroke="#F7A8B8" stroke-width="0.25" fill="#be6487"
        d="M 0,-256
         C 0,-216 0,-216 32,-205.25
         A 216 216 0 0 0 -32,-205.25
         C -0,-216 0,-216 0,-256" />
        </g>
        </g>
    </svg>
    <svg viewBox="-500 -500 1000 1000" x="-500" y="-500" width="1000" height="1000">
        <circle r="200" stroke="#8e7744" stroke-width="16" fill="#FFFFFF">
           <animate id="c2a1a" attributeName="stroke-width" dur="1000ms" from="16" to="0" begin="lotusrotate.begin+4000ms;c2a1b.begin+4000ms" fill="freeze" />
            <animate id="c2a1b" attributeName="stroke-width" dur="1000ms" from="0" to="16" begin="c2a1a.begin+4000ms" fill="freeze" />     
        </circle>
    </svg>
    <svg viewBox="-500 -500 1000 1000" x="-500" y="-500" width="1000" height="1000">
        <polygon fill="none" stroke="#8e7744" stroke-width="8" points="0,-192 166,96 -166,96"> 
            <animateTransform id="trianglerotate1a" attributeName="transform" attributeType="XML" type="rotate"
         from="0 0 0" to="180 0 0" dur="4000ms" begin="lotuswait.begin+12000ms;trianglerotate1b.begin+8000ms" fill="freeeze"/>
            <animateTransform id="trianglerotate1b" attributeName="transform" attributeType="XML" type="rotate"
         from="180 0 0" to="0 0 0" dur="4000ms" begin="lotuswait.begin+12000ms;trianglerotate1a.begin+8000ms"/>
        </polygon>
        <polygon fill="none" stroke="#8e7744" stroke-width="8" points="0,-192 166,96 -166,96" transform="rotate(180 0 0)">
            <animateTransform id="trianglerotate2a" attributeName="transform" attributeType="XML" type="rotate"
         from="180 0 0" to="0 0 0" dur="4000ms" begin="lotuswait.begin+12000ms;trianglerotate2b.begin+8000ms" fill="freeeze"/>
        <animateTransform id="trianglerotate2b" attributeName="transform" attributeType="XML" type="rotate"
         from="0 0 0" to="180 0 0" dur="4000ms" begin="lotuswait.begin+12000ms;trianglerotate2a.begin+8000ms"/>
        </polygon>
        
    </svg>
        <circle r="5" fill="#8e7744"/>
</svg>